<svg width="171" height="54" viewBox="0 0 171 54" fill="none" xmlns="http://www.w3.org/2000/svg">
<path d="M6.94651 0H164.053C167.886 0 171 2.9052 171 6.48V47.52C171 51.0948 167.886 54 164.053 54H6.94651C3.11435 54 0 51.0948 0 47.52V6.48C0 2.9052 3.11435 0 6.94651 0Z" fill="white"/>
<path d="M36.8825 25.7688C36.85 21.9024 40.0593 20.0232 40.2003 19.9368C38.3788 17.3016 35.5598 16.9344 34.5731 16.902C32.2095 16.6536 29.9109 18.3168 28.7074 18.3168C27.4822 18.3168 25.6173 16.9344 23.6224 16.9668C21.0527 17.01 18.6349 18.4896 17.323 20.8008C14.6015 25.4988 16.6291 32.4108 19.2421 36.2124C20.554 38.07 22.0719 40.1544 24.0777 40.0788C26.0294 40.0032 26.7666 38.8368 29.1194 38.8368C31.4614 38.8368 32.1444 40.0788 34.1828 40.0356C36.2862 40.0032 37.5981 38.1672 38.8667 36.288C40.3738 34.1604 40.9809 32.0544 41.0026 31.9464C40.9484 31.9248 36.9259 30.3912 36.8825 25.7688Z" fill="#083E9E"/>
<path d="M33.0336 14.4072C34.0853 13.1004 34.8009 11.3184 34.6057 9.50403C33.0878 9.56883 31.1795 10.5516 30.0844 11.8368C29.1195 12.9708 28.2521 14.8176 28.4689 16.5564C30.182 16.686 31.9385 15.6924 33.0336 14.4072Z" fill="#083E9E"/>
<path d="M65.2027 39.8088H62.4705L60.9742 35.1216H55.7699L54.3495 39.8088H51.6932L56.8433 23.8572H60.0309L65.2027 39.8088ZM60.5297 33.156L59.1744 28.998C59.0334 28.566 58.7624 27.5724 58.372 25.9956H58.3178C58.1552 26.676 57.9058 27.6804 57.5589 28.998L56.2253 33.156H60.5297Z" fill="#083E9E"/>
<path d="M78.4412 33.9228C78.4412 35.8776 77.91 37.422 76.8366 38.556C75.8825 39.5712 74.6898 40.068 73.2803 40.068C71.7515 40.068 70.6565 39.528 69.9843 38.4372V44.4744H67.4146V32.0868C67.4146 30.8556 67.3821 29.6028 67.317 28.3068H69.5722L69.7132 30.132H69.7566C70.6131 28.7604 71.9142 28.0692 73.6489 28.0692C75.0151 28.0692 76.1427 28.6092 77.0534 29.6784C77.9859 30.7584 78.4412 32.1624 78.4412 33.9228ZM75.8283 34.0092C75.8283 32.886 75.5789 31.968 75.0693 31.2444C74.5163 30.4884 73.7682 30.1104 72.8358 30.1104C72.2069 30.1104 71.6323 30.3264 71.1119 30.7368C70.6023 31.158 70.2553 31.698 70.1035 32.3784C70.0276 32.6916 69.9843 32.9508 69.9843 33.156V35.0784C69.9843 35.91 70.2445 36.6228 70.7541 37.1952C71.2636 37.7676 71.9359 38.0592 72.7599 38.0592C73.7248 38.0592 74.473 37.6812 75.0151 36.9468C75.5572 36.2016 75.8283 35.2296 75.8283 34.0092Z" fill="#083E9E"/>
<path d="M91.7122 33.9228C91.7122 35.8776 91.1809 37.422 90.1075 38.556C89.1534 39.5712 87.9608 40.068 86.5513 40.068C85.0225 40.068 83.9274 39.528 83.2552 38.4372V44.4744H80.6856V32.0868C80.6856 30.8556 80.653 29.6028 80.588 28.3068H82.8432L82.9841 30.132H83.0275C83.884 28.7604 85.1851 28.0692 86.9199 28.0692C88.286 28.0692 89.4136 28.6092 90.3244 29.6784C91.2568 30.7584 91.7122 32.1624 91.7122 33.9228ZM89.0992 34.0092C89.0992 32.886 88.8498 31.968 88.3402 31.2444C87.7873 30.4884 87.0392 30.1104 86.1067 30.1104C85.4779 30.1104 84.9032 30.3264 84.3828 30.7368C83.8732 31.158 83.5371 31.698 83.3745 32.3784C83.2986 32.6916 83.2552 32.9508 83.2552 33.156V35.0784C83.2552 35.91 83.5154 36.6228 84.025 37.1952C84.5346 37.7676 85.2068 38.0592 86.0308 38.0592C86.9958 38.0592 87.7548 37.6812 88.286 36.9468C88.839 36.2016 89.0992 35.2296 89.0992 34.0092Z" fill="#083E9E"/>
<path d="M106.566 35.3376C106.566 36.6984 106.089 37.8 105.146 38.6532C104.105 39.582 102.652 40.0464 100.787 40.0464C99.0633 40.0464 97.6864 39.7116 96.6455 39.0528L97.2418 36.9252C98.3694 37.584 99.6055 37.9188 100.95 37.9188C101.915 37.9188 102.674 37.7028 103.205 37.2708C103.747 36.8388 104.018 36.2556 104.018 35.532C104.018 34.884 103.791 34.344 103.357 33.9012C102.912 33.4584 102.175 33.048 101.145 32.67C98.3152 31.6224 96.9166 30.0996 96.9166 28.1016C96.9166 26.7948 97.4153 25.7256 98.402 24.8832C99.3886 24.0516 100.701 23.6304 102.338 23.6304C103.791 23.6304 105.005 23.8788 105.97 24.3864L105.319 26.46C104.409 25.974 103.389 25.7256 102.24 25.7256C101.34 25.7256 100.625 25.9524 100.115 26.3844C99.6922 26.784 99.4753 27.2592 99.4753 27.8316C99.4753 28.458 99.7247 28.9872 100.213 29.3868C100.635 29.7648 101.416 30.1752 102.544 30.618C103.921 31.1688 104.929 31.8168 105.58 32.562C106.241 33.3072 106.566 34.236 106.566 35.3376Z" fill="#083E9E"/>
<path d="M115.067 30.2292H112.237V35.8128C112.237 37.2276 112.736 37.9404 113.733 37.9404C114.188 37.9404 114.568 37.8972 114.871 37.8216L114.947 39.7656C114.438 39.9492 113.776 40.0464 112.952 40.0464C111.933 40.0464 111.153 39.7332 110.578 39.1176C110.003 38.502 109.721 37.4652 109.721 36.018V30.2184H108.041V28.3068H109.721V26.2008L112.237 25.4448V28.3068H115.067V30.2292Z" fill="#083E9E"/>
<path d="M127.796 33.966C127.796 35.7371 127.286 37.1843 126.278 38.3183C125.215 39.4847 123.806 40.0679 122.049 40.0679C120.358 40.0679 119.002 39.5063 117.994 38.3939C116.986 37.2815 116.487 35.8667 116.487 34.1604C116.487 32.3784 117.007 30.9204 118.037 29.7864C119.078 28.6524 120.477 28.08 122.233 28.08C123.925 28.08 125.291 28.6416 126.321 29.7648C127.308 30.8448 127.796 32.2488 127.796 33.966ZM125.139 34.02C125.139 32.9616 124.912 32.0652 124.456 31.3092C123.914 30.3912 123.144 29.9376 122.147 29.9376C121.117 29.9376 120.325 30.3912 119.794 31.3092C119.328 32.0652 119.111 32.9832 119.111 34.074C119.111 35.1323 119.339 36.0395 119.794 36.7847C120.347 37.7027 121.128 38.1563 122.125 38.1563C123.101 38.1563 123.871 37.6919 124.434 36.7631C124.901 35.9855 125.139 35.0784 125.139 34.02Z" fill="#083E9E"/>
<path d="M136.144 30.5532C135.895 30.51 135.624 30.4884 135.331 30.4884C134.431 30.4884 133.726 30.8232 133.238 31.5036C132.816 32.0976 132.599 32.8644 132.599 33.7716V39.8088H130.029V31.9248C130.029 30.5964 130.007 29.3868 129.953 28.3068H132.187L132.284 30.51H132.36C132.631 29.754 133.054 29.1384 133.64 28.6848C134.214 28.2744 134.832 28.0692 135.494 28.0692C135.732 28.0692 135.949 28.0908 136.133 28.1124L136.144 30.5532Z" fill="#083E9E"/>
<path d="M147.615 33.5123C147.615 33.9659 147.583 34.3547 147.518 34.6679H139.82C139.852 35.8019 140.221 36.6767 140.936 37.2707C141.587 37.7999 142.422 38.0699 143.452 38.0699C144.59 38.0699 145.631 37.8863 146.564 37.5299L146.965 39.3011C145.87 39.7763 144.579 40.0139 143.094 40.0139C141.305 40.0139 139.896 39.4847 138.876 38.4371C137.857 37.3895 137.348 35.9747 137.348 34.2143C137.348 32.4863 137.825 31.0391 138.779 29.8835C139.776 28.6523 141.121 28.0367 142.812 28.0367C144.471 28.0367 145.74 28.6523 146.585 29.8835C147.268 30.8771 147.615 32.0759 147.615 33.5123ZM145.165 32.8535C145.187 32.0975 145.013 31.4387 144.666 30.8879C144.222 30.1751 143.539 29.8187 142.628 29.8187C141.793 29.8187 141.11 30.1643 140.589 30.8555C140.167 31.4063 139.906 32.0759 139.831 32.8427L145.165 32.8535Z" fill="#083E9E"/>
<path d="M59.2938 18.1548H57.9494L57.2121 15.8544H54.6533L53.9486 18.1548H52.6475L55.1737 10.314H56.735L59.2938 18.1548ZM56.9844 14.8824L56.323 12.8304C56.258 12.6252 56.1279 12.1284 55.9219 11.3508H55.9002C55.8134 11.6856 55.705 12.1716 55.5207 12.8304L54.8702 14.8824H56.9844Z" fill="#083E9E"/>
<path d="M65.6257 12.4956L63.4789 18.1548H62.2538L60.172 12.4956H61.5273L62.4923 15.4872C62.6549 15.984 62.7959 16.4592 62.9043 16.9128H62.9368C63.0344 16.5024 63.1754 16.0272 63.3488 15.4872L64.303 12.4956H65.6257Z" fill="#083E9E"/>
<path d="M70.2012 18.1547L70.1036 17.5067H70.0711C69.6808 18.0251 69.1278 18.2843 68.4122 18.2843C67.3931 18.2843 66.6775 17.5715 66.6775 16.6211C66.6775 15.2279 67.8918 14.5043 69.9952 14.5043V14.3963C69.9952 13.6511 69.5941 13.2839 68.8134 13.2839C68.2496 13.2839 67.7617 13.4243 67.328 13.7051L67.0678 12.8843C67.5882 12.5603 68.2496 12.3983 69.0194 12.3983C70.5048 12.3983 71.2529 13.1759 71.2529 14.7419V16.8263C71.2529 17.3987 71.2746 17.8415 71.3397 18.1763L70.2012 18.1547ZM70.0278 15.3359C68.6291 15.3359 67.9243 15.6707 67.9243 16.4807C67.9243 17.0747 68.2821 17.3663 68.7917 17.3663C69.4314 17.3663 70.0278 16.8803 70.0278 16.2107V15.3359Z" fill="#083E9E"/>
<path d="M74.0611 11.5668C73.6383 11.5668 73.313 11.2428 73.313 10.8108C73.313 10.3788 73.6491 10.0656 74.0828 10.0656C74.5165 10.0656 74.8634 10.3788 74.8526 10.8108C74.8526 11.2644 74.5273 11.5668 74.0611 11.5668ZM73.4539 12.4956H74.7116V18.144H73.4539V12.4956Z" fill="#083E9E"/>
<path d="M76.9561 9.90356H78.2138V18.144H76.9561V9.90356Z" fill="#083E9E"/>
<path d="M83.5699 18.1548L83.4723 17.5068H83.4397C83.0494 18.0252 82.4965 18.2844 81.7809 18.2844C80.7617 18.2844 80.0461 17.5716 80.0461 16.6212C80.0461 15.228 81.2604 14.5044 83.3638 14.5044V14.3964C83.3638 13.6512 82.9627 13.284 82.182 13.284C81.6182 13.284 81.1303 13.4244 80.6966 13.7052L80.4364 12.8736C80.9568 12.5496 81.6182 12.3876 82.388 12.3876C83.8734 12.3876 84.6216 13.1652 84.6216 14.7312V16.8156C84.6216 17.388 84.6432 17.8308 84.6975 18.1656H83.5699V18.1548ZM83.3964 15.336C81.9977 15.336 81.2929 15.6708 81.2929 16.4808C81.2929 17.0748 81.6507 17.3664 82.1603 17.3664C82.8 17.3664 83.3964 16.8804 83.3964 16.2108V15.336Z" fill="#083E9E"/>
<path d="M89.7391 18.2844C88.9368 18.2844 88.3404 17.9496 87.9501 17.28H87.9284L87.8525 18.1548H86.7792C86.8117 17.7012 86.8225 17.1936 86.8225 16.632V9.90356H88.0911V13.3272H88.1127C88.4922 12.7008 89.0886 12.3876 89.9234 12.3876C91.2895 12.3876 92.2436 13.554 92.2436 15.2496C92.2436 16.9992 91.1811 18.2844 89.7391 18.2844ZM89.4789 13.3704C88.7524 13.3704 88.0911 13.9968 88.0911 14.8716V15.8652C88.0911 16.6428 88.6874 17.28 89.4572 17.28C90.4005 17.28 90.9643 16.5132 90.9643 15.2928C90.9643 14.148 90.3788 13.3704 89.4789 13.3704Z" fill="#083E9E"/>
<path d="M94.1086 9.90356H95.3662V18.144H94.1086V9.90356Z" fill="#083E9E"/>
<path d="M102.229 15.6276H98.4455C98.4671 16.6968 99.1827 17.3016 100.234 17.3016C100.798 17.3016 101.308 17.2044 101.763 17.0316L101.958 17.9064C101.427 18.144 100.798 18.252 100.061 18.252C98.2828 18.252 97.2311 17.1396 97.2311 15.4008C97.2311 13.6728 98.3045 12.366 99.92 12.366C101.362 12.366 102.284 13.4352 102.284 15.0552C102.284 15.282 102.273 15.4764 102.229 15.6276ZM101.08 14.7312C101.08 13.8564 100.636 13.2408 99.8333 13.2408C99.1068 13.2408 98.543 13.8672 98.4563 14.7312H101.08Z" fill="#083E9E"/>
<path d="M109.873 18.2844C108.214 18.2844 107.141 17.0532 107.141 15.3792C107.141 13.6296 108.236 12.3876 109.971 12.3876C111.608 12.3876 112.703 13.5648 112.703 15.282C112.703 17.0424 111.576 18.2844 109.873 18.2844ZM109.927 13.3056C109.017 13.3056 108.431 14.1588 108.431 15.336C108.431 16.5024 109.028 17.3448 109.917 17.3448C110.806 17.3448 111.402 16.4376 111.402 15.3036C111.391 14.1588 110.817 13.3056 109.927 13.3056Z" fill="#083E9E"/>
<path d="M119.48 18.1547H118.222V14.9039C118.222 13.8995 117.832 13.4027 117.073 13.4027C116.325 13.4027 115.815 14.0399 115.815 14.7851V18.1439H114.557V14.1155C114.557 13.6187 114.546 13.0787 114.514 12.4955H115.62L115.674 13.3703H115.707C116.043 12.7655 116.737 12.3767 117.506 12.3767C118.699 12.3767 119.48 13.2839 119.48 14.7635V18.1547Z" fill="#083E9E"/>
<path d="M127.731 13.446H126.343V16.1892C126.343 16.8912 126.592 17.2368 127.08 17.2368C127.297 17.2368 127.492 17.2152 127.644 17.1828L127.676 18.1332C127.427 18.2304 127.102 18.2736 126.701 18.2736C125.703 18.2736 125.118 17.7228 125.118 16.2972V13.446H124.294V12.5064H125.118V11.4696L126.354 11.0916V12.4956H127.741V13.446" fill="#083E9E"/>
<path d="M134.41 18.1548H133.152V14.9256C133.152 13.9104 132.762 13.4028 132.003 13.4028C131.352 13.4028 130.745 13.8456 130.745 14.742V18.144H129.487V9.90356H130.745V13.2948H130.767C131.168 12.6792 131.732 12.3768 132.469 12.3768C133.672 12.3768 134.41 13.3056 134.41 14.7852V18.1548Z" fill="#083E9E"/>
<path d="M140.85 15.6276H137.066C137.088 16.6968 137.803 17.3016 138.855 17.3016C139.419 17.3016 139.928 17.2044 140.384 17.0316L140.579 17.9064C140.048 18.144 139.419 18.252 138.681 18.252C136.903 18.252 135.852 17.1396 135.852 15.4008C135.852 13.6728 136.925 12.366 138.54 12.366C139.983 12.366 140.904 13.4352 140.904 15.0552C140.904 15.282 140.893 15.4764 140.85 15.6276ZM139.701 14.7312C139.701 13.8564 139.256 13.2408 138.454 13.2408C137.727 13.2408 137.153 13.8672 137.077 14.7312H139.701Z" fill="#083E9E"/>
</svg>
