<svg width="34" height="34" viewBox="0 0 34 34" fill="none" xmlns="http://www.w3.org/2000/svg">
<path d="M0 10.625C0 4.75698 4.75698 0 10.625 0H23.375C29.243 0 34 4.75698 34 10.625V23.375C34 29.243 29.243 34 23.375 34H0V10.625Z" fill="#EFF3F5"/>
<path d="M17 9.20831V24.7917" stroke="black" stroke-width="3" stroke-linecap="round" stroke-linejoin="round"/>
<path d="M20.5417 12.0417H15.2292C14.5717 12.0417 13.9411 12.3028 13.4761 12.7678C13.0112 13.2327 12.75 13.8633 12.75 14.5208C12.75 15.1783 13.0112 15.8089 13.4761 16.2739C13.9411 16.7388 14.5717 17 15.2292 17H18.7708C19.4283 17 20.0589 17.2612 20.5239 17.7261C20.9888 18.1911 21.25 18.8217 21.25 19.4792C21.25 20.1367 20.9888 20.7673 20.5239 21.2322C20.0589 21.6972 19.4283 21.9583 18.7708 21.9583H12.75" stroke="black" stroke-width="3" stroke-linecap="round" stroke-linejoin="round"/>
</svg>
