<svg width="171" height="56" viewBox="0 0 171 56" fill="none" xmlns="http://www.w3.org/2000/svg">
<path d="M171 48.4002C171 52.5766 167.616 55.9636 163.443 55.9636H7.55906C3.38503 55.964 0 52.5769 0 48.4002V7.56279C0 3.3867 3.38503 0 7.55906 0H163.442C167.616 0 171 3.3867 171 7.56279V48.4002H171Z" fill="white"/>
<path d="M13.3263 15.0792C13.3263 13.7586 14.9095 13.0825 15.8635 13.9957L30.0725 27.5971C30.6895 28.1877 30.6895 29.1736 30.0725 29.7642L15.8635 43.3654C14.9095 44.2786 13.3263 43.6025 13.3263 42.2819V15.0792Z" fill="#083E9E" stroke="white"/>
<path d="M35.1012 25.6424C36.0734 24.7118 35.8674 23.1059 34.6919 22.4508L29.3472 19.4719L12.9191 10.3149C12.8775 10.2917 12.8263 10.3218 12.8263 10.3695C12.8263 10.3865 12.8333 10.4028 12.8456 10.4146L30.5445 27.3568C31.3179 28.0971 32.5372 28.0971 33.3105 27.3567L35.1012 25.6424Z" fill="#083E9E"/>
<path d="M12.8456 46.9466C12.8333 46.9584 12.8263 46.9747 12.8263 46.9917C12.8263 47.0393 12.8775 47.0694 12.9191 47.0462L29.3472 37.8889L34.6915 34.9102C35.867 34.2549 36.073 32.6491 35.1008 31.7185L33.3105 30.0047C32.5372 29.2643 31.3179 29.2643 30.5445 30.0046L12.8456 46.9466Z" fill="#083E9E"/>
<path d="M36.3368 25.1518C36.8124 24.6965 37.5293 24.6046 38.1044 24.9251L42.4913 27.3701C43.5176 27.9422 43.5176 29.4186 42.4913 29.9906L38.104 32.4358C37.5289 32.7563 36.8121 32.6643 36.3365 32.2091L33.7826 29.7642C33.1656 29.1736 33.1656 28.1878 33.7825 27.5972L36.3368 25.1518Z" fill="#083E9E" stroke="white"/>
<path d="M133.08 35.829C132.363 35.829 131.708 35.7012 131.115 35.4459C130.523 35.1903 130.025 34.7972 129.622 34.2672H129.502C129.582 34.8882 129.622 35.4769 129.622 36.033V40.4092H127.955V25H129.311L129.542 26.4556H129.622C130.052 25.8731 130.551 25.4532 131.12 25.1943C131.69 24.9355 132.343 24.806 133.08 24.806C134.541 24.806 135.669 25.2882 136.462 26.252C137.256 27.2157 137.653 28.568 137.653 30.3077C137.653 32.0544 137.25 33.4109 136.443 34.3789C135.636 35.3458 134.515 35.829 133.08 35.829ZM132.839 26.1742C131.713 26.1742 130.899 26.4753 130.397 27.0766C129.894 27.6782 129.636 28.6358 129.622 29.9491V30.3077C129.622 31.8023 129.88 32.8713 130.397 33.5152C130.913 34.1591 131.741 34.4802 132.879 34.4802C133.831 34.4802 134.577 34.1088 135.116 33.3648C135.655 32.6212 135.925 31.5958 135.925 30.2883C135.925 28.9628 135.655 27.9448 135.116 27.2367C134.577 26.5279 133.817 26.1742 132.839 26.1742ZM141.517 35.6347H139.849V20.5363H141.517V35.6347ZM151.11 35.6347L150.778 34.121H150.697C150.148 34.7878 149.6 35.2393 149.054 35.4746C148.508 35.7112 147.826 35.829 147.009 35.829C145.917 35.829 145.061 35.5573 144.441 35.014C143.82 34.4709 143.511 33.6982 143.511 32.6951C143.511 30.5478 145.29 29.422 148.848 29.3181L150.718 29.2597V28.6C150.718 27.7653 150.532 27.1489 150.16 26.7516C149.788 26.3533 149.193 26.1545 148.376 26.1545C147.458 26.1545 146.419 26.4262 145.26 26.9694L144.747 25.7372C145.29 25.4525 145.885 25.2295 146.532 25.0678C147.178 24.9061 147.826 24.8251 148.477 24.8251C149.79 24.8251 150.763 25.1062 151.397 25.6691C152.029 26.232 152.346 27.1344 152.346 28.3767V35.6344H151.11V35.6347H151.11ZM147.341 34.4999C148.379 34.4999 149.194 34.2249 149.788 33.6753C150.38 33.1256 150.677 32.3555 150.677 31.3653V30.4048L149.008 30.4723C147.682 30.5184 146.726 30.7166 146.139 31.07C145.553 31.4225 145.259 31.9708 145.259 32.7148C145.259 33.2967 145.442 33.7401 145.807 34.0435C146.173 34.3479 146.683 34.4999 147.341 34.4999ZM153.315 25H155.103L157.516 31.0648C158.045 32.4494 158.374 33.4487 158.501 34.0635H158.582C158.669 33.733 158.852 33.1692 159.129 32.3694C159.407 31.5703 160.317 29.1144 161.858 25H163.648L158.913 37.11C158.444 38.3068 157.896 39.1559 157.269 39.6581C156.643 40.159 155.874 40.4092 154.963 40.4092C154.454 40.4092 153.951 40.3543 153.455 40.2446V38.9542C153.823 39.0316 154.236 39.0707 154.692 39.0707C155.838 39.0707 156.654 38.4497 157.144 37.2075L157.757 35.6941L153.315 25ZM102.172 25.9883C102.702 26.4114 103.808 27.3002 103.808 28.9918C103.808 30.6369 102.84 31.417 101.872 32.1499C101.573 32.4388 101.227 32.7512 101.227 33.2411C101.227 33.7295 101.572 33.9967 101.827 34.1972L102.656 34.8188C103.67 35.6421 104.591 36.3989 104.591 37.9343C104.591 40.0251 102.494 42.1375 98.5316 42.1375C95.19 42.1375 93.5779 40.6031 93.5779 38.9561C93.5779 38.1557 93.9908 37.0219 95.3522 36.2424C96.7797 35.3971 98.7165 35.2871 99.7529 35.2187C99.4293 34.8188 99.0615 34.396 99.0615 33.7075C99.0615 33.3299 99.1772 33.1072 99.2919 32.839C99.0374 32.8616 98.7844 32.8839 98.5537 32.8839C96.1121 32.8839 94.7297 31.1265 94.7297 29.3923C94.7297 28.3689 95.2141 27.2338 96.2037 26.4117C97.5176 25.3664 99.0842 25.1878 100.33 25.1878H105.075L103.6 25.9886H102.172V25.9883H102.172ZM100.536 35.8651C100.352 35.8419 100.236 35.8419 100.007 35.8419C99.7993 35.8419 98.5533 35.8874 97.5868 36.1995C97.08 36.3761 95.6049 36.9099 95.6049 38.4901C95.6049 40.0687 97.1956 41.2048 99.6613 41.2048C101.872 41.2048 103.048 40.1794 103.048 38.8015C103.048 37.6648 102.288 37.0667 100.536 35.8651ZM101.204 31.6381C101.734 31.1258 101.779 30.4148 101.779 30.014C101.779 28.4128 100.789 25.9215 98.8769 25.9215C98.2771 25.9215 97.6326 26.2103 97.2638 26.6557C96.8726 27.1227 96.7563 27.7227 96.7563 28.3018C96.7563 29.7919 97.655 32.2613 99.6375 32.2613C100.214 32.2613 100.834 31.9944 101.204 31.6381ZM87.6664 35.5091C84.0092 35.5091 82.0538 32.7551 82.0538 30.2673C82.0538 27.3577 84.5147 24.8716 88.0128 24.8716C91.3928 24.8716 93.5094 27.4245 93.5094 30.1124C93.5097 32.7319 91.4172 35.5091 87.6664 35.5091ZM90.5416 33.7104C91.0946 32.9991 91.2326 32.1112 91.2326 31.2443C91.2326 29.2894 90.2664 25.559 87.4136 25.559C86.6548 25.559 85.8958 25.8482 85.3439 26.3156C84.4465 27.0918 84.2847 28.0694 84.2847 29.0254C84.2847 31.2224 85.412 34.8414 88.1963 34.8414C89.0933 34.8414 90.0136 34.4202 90.5416 33.7104ZM75.1978 35.5091C71.5399 35.5091 69.5841 32.7551 69.5841 30.2673C69.5841 27.3577 72.0461 24.8716 75.5431 24.8716C78.9242 24.8716 81.0404 27.4245 81.0404 30.1124C81.0408 32.7319 78.9479 35.5091 75.1978 35.5091ZM78.0736 33.7104C78.6256 32.9991 78.764 32.1112 78.764 31.2443C78.764 29.2894 77.7971 25.559 74.9443 25.559C74.1858 25.559 73.4262 25.8482 72.8745 26.3156C71.9772 27.0918 71.8164 28.0694 71.8164 29.0254C71.8164 31.2224 72.9431 34.8414 75.7277 34.8414C76.625 34.8414 77.5448 34.4202 78.0736 33.7104ZM67.8269 35.1609L64.5191 35.8977C63.1771 36.0991 61.9749 36.2763 60.7035 36.2763C54.3192 36.2763 51.8917 31.7436 51.8917 28.1933C51.8917 23.8623 55.3373 19.8444 61.2357 19.8444C62.4851 19.8444 63.6867 20.0225 64.7736 20.313C66.508 20.782 67.3175 21.3619 67.8266 21.6973L65.9062 23.4611L65.0972 23.639L65.6752 22.7456C64.8892 22.0094 63.454 20.6477 60.7259 20.6477C57.0714 20.6477 54.3186 23.3281 54.3186 27.2351C54.3186 31.4315 57.4646 35.3836 62.5055 35.3836C63.9872 35.3836 64.7488 35.0938 65.4432 34.8252V31.2314L61.9515 31.4099L63.801 30.4487H68.7045L68.1038 31.0068C67.9406 31.1414 67.9182 31.1866 67.8721 31.3634C67.848 31.5648 67.8263 32.2129 67.8263 32.4359V35.1609H67.8269V35.1609Z" fill="#083E9E"/>
<path d="M109.482 34.5181C108.719 34.4509 108.559 34.3176 108.559 33.4459V20.8088C108.564 20.7607 108.567 20.7114 108.571 20.6649C108.665 19.8838 108.896 19.7499 109.613 19.3474H106.305L104.57 20.1514H106.338V20.1614L106.337 20.1533V33.9377C106.337 34.3835 106.245 34.4512 105.713 35.1203H109.807L110.663 34.6304C110.27 34.5842 109.876 34.5626 109.482 34.5181ZM118.894 34.7233C118.642 34.8566 118.389 35.0125 118.137 35.1226C117.378 35.455 116.597 35.5441 115.907 35.5441C115.174 35.5441 114.024 35.4983 112.852 34.6788C111.222 33.5692 110.51 31.6624 110.51 29.9998C110.51 26.5635 113.404 24.8784 115.77 24.8784C116.597 24.8784 117.448 25.0776 118.137 25.4997C119.284 26.2301 119.583 27.1835 119.743 27.6938L114.346 29.8011L112.578 29.934C113.151 32.75 115.126 34.3896 117.309 34.3896C118.48 34.3896 119.33 33.9913 120.111 33.615L118.894 34.7233ZM116.735 28.1147C117.171 27.9601 117.4 27.8264 117.4 27.5163C117.4 26.63 116.367 25.6095 115.126 25.6095C114.206 25.6095 112.485 26.2972 112.485 28.6914C112.485 29.0684 112.531 29.4673 112.555 29.8678L116.735 28.1147ZM121.11 25.0301V26.4931H120.926V25.0301H120.425V24.8784H121.612V25.0301H121.11ZM123.177 26.4931V25.0166H123.168L122.701 26.4931H122.557L122.087 25.0166H122.081V26.4931H121.913V24.8784H122.2L122.626 26.1836H122.632L123.052 24.8784H123.342V26.4931H123.177Z" fill="#083E9E"/>
<path d="M56.4853 15.497H55.3359C55.3359 15.3443 55.2269 14.9122 55.009 14.2002H53.3497C53.1247 14.9005 53.012 15.3327 53.012 15.497H51.9312C51.9312 15.4069 52.2107 14.6672 52.7697 13.2781C53.3286 11.8889 53.6081 11.1237 53.6081 10.983H54.9658C54.9658 11.1147 55.2189 11.8686 55.7254 13.2452C56.2319 14.6217 56.4853 15.3721 56.4853 15.497ZM54.8261 13.5379C54.4165 12.3453 54.2119 11.7005 54.2119 11.6033H54.1544C54.1544 11.6934 53.9425 12.3382 53.5189 13.5379H54.8261ZM61.1164 15.497H60.2294C60.2294 15.4021 59.9001 14.9018 59.2418 13.9959C58.5525 13.0412 58.1596 12.3886 58.064 12.0371H58.0065C58.0664 12.5432 58.0965 13.0008 58.0965 13.4101C58.0965 13.9811 58.1132 14.6769 58.1466 15.4973H57.263C57.2988 14.7808 57.3169 13.994 57.3169 13.1364C57.3169 12.2928 57.2988 11.5749 57.263 10.9833H58.3295C58.3295 11.106 58.625 11.5949 59.2165 12.4499C59.846 13.3581 60.2077 13.9743 60.301 14.298H60.3549C60.2974 13.7826 60.2686 13.3204 60.2686 12.9111C60.2686 12.285 60.2519 11.6421 60.2185 10.9833H61.1164C61.0827 11.5565 61.0663 12.2743 61.0663 13.1364C61.0659 14.0049 61.0826 14.7918 61.1164 15.497ZM66.3215 13.0838C66.3215 13.7403 66.1035 14.3135 65.6679 14.8034C65.2319 15.2937 64.6214 15.5383 63.8361 15.5383C63.4817 15.5383 62.9933 15.5244 62.3708 15.4967C62.4018 14.7986 62.4176 14.0114 62.4176 13.1358C62.4176 12.2947 62.4019 11.5769 62.3708 10.9827H62.9993C63.1023 10.9827 63.2554 10.9791 63.459 10.9723C63.6623 10.9656 63.7953 10.962 63.8575 10.962C64.7218 10.962 65.3483 11.1702 65.7377 11.5862C66.1269 12.0022 66.3215 12.5012 66.3215 13.0838ZM65.3412 13.2329C65.3412 12.7891 65.2072 12.4153 64.939 12.111C64.6709 11.8073 64.2613 11.6553 63.7107 11.6553C63.6078 11.6553 63.4667 11.6656 63.2868 11.6866C63.3105 12.1491 63.3226 12.6319 63.3226 13.1357C63.3226 13.6883 63.3346 14.236 63.3583 14.7792C63.512 14.8091 63.6683 14.8242 63.825 14.8244C64.3399 14.8244 64.721 14.6698 64.9688 14.3612C65.2165 14.0527 65.3412 13.6766 65.3412 13.2329ZM71.1214 15.497H70.0582C69.7804 14.6788 69.5675 14.1737 69.419 13.982C69.2706 13.79 69.0312 13.6941 68.7009 13.6941C68.5618 13.6941 68.4291 13.6954 68.3024 13.6976C68.3024 14.2919 68.313 14.8915 68.3348 15.497H67.3365C67.3676 14.7989 67.3833 14.0117 67.3833 13.1361C67.3833 12.295 67.3676 11.5772 67.3365 10.983H67.9577C68.0295 10.983 68.1797 10.9794 68.4084 10.9727C68.637 10.9659 68.8483 10.9623 69.0422 10.9623C70.1412 10.9623 70.6908 11.3251 70.6908 12.051C70.6908 12.6264 70.3772 13.0273 69.75 13.2542V13.3062C69.9917 13.3707 70.2037 13.5531 70.3855 13.8519C70.5671 14.1511 70.8125 14.6995 71.1214 15.497ZM69.7747 12.3072C69.7747 11.8473 69.4681 11.6172 68.8553 11.6172C68.6303 11.6172 68.4314 11.6333 68.2592 11.6656C68.2856 12.0239 68.2987 12.4909 68.2987 13.0663C68.4304 13.0712 68.5417 13.0731 68.6327 13.0731C69.3939 13.0734 69.7747 12.8181 69.7747 12.3072ZM76.2693 13.1567C76.2693 13.8661 76.0443 14.4545 75.594 14.9215C75.1436 15.3882 74.587 15.6219 73.924 15.6219C73.2918 15.6219 72.7626 15.4076 72.3366 14.9786C71.9104 14.55 71.6974 14.0049 71.6974 13.3442C71.6974 12.6348 71.9224 12.0464 72.3727 11.5794C72.8227 11.1127 73.3794 10.879 74.0427 10.879C74.6749 10.879 75.2038 11.0927 75.6301 11.5203C76.0563 11.948 76.2693 12.4931 76.2693 13.1567ZM75.2784 13.2571C75.2784 12.7739 75.1503 12.3821 74.8942 12.0816C74.6378 11.7811 74.3219 11.6311 73.9461 11.6311C73.5964 11.6311 73.2995 11.7824 73.0554 12.0852C72.8114 12.3879 72.6887 12.7704 72.6887 13.2329C72.6887 13.7135 72.8174 14.1046 73.0748 14.4064C73.3322 14.7082 73.6475 14.8589 74.0213 14.8589C74.3707 14.8589 74.6679 14.7069 74.9119 14.4029C75.156 14.0992 75.2784 13.717 75.2784 13.2571ZM78.3 15.497H77.2836C77.3147 14.7805 77.3304 13.9936 77.3304 13.1361C77.3304 12.2924 77.3147 11.5746 77.2836 10.983H78.3C78.2689 11.5655 78.2532 12.283 78.2532 13.1361C78.2532 14.0072 78.2689 14.7944 78.3 15.497ZM83.5054 13.0838C83.5054 13.7403 83.2874 14.3135 82.8518 14.8034C82.4159 15.2937 81.8054 15.5383 81.02 15.5383C80.6656 15.5383 80.1772 15.5244 79.5547 15.4967C79.5858 14.7986 79.6015 14.0114 79.6015 13.1358C79.6015 12.2947 79.5858 11.5769 79.5547 10.9827H80.1832C80.2862 10.9827 80.4393 10.9791 80.6429 10.9723C80.8462 10.9656 80.9792 10.962 81.0415 10.962C81.9057 10.962 82.5322 11.1702 82.9217 11.5862C83.3108 12.0022 83.5054 12.5012 83.5054 13.0838ZM82.5252 13.2329C82.5252 12.7891 82.3911 12.4153 82.1229 12.111C81.8548 11.8073 81.4453 11.6553 80.8946 11.6553C80.7917 11.6553 80.6506 11.6656 80.4707 11.6866C80.4944 12.1491 80.5065 12.6319 80.5065 13.1357C80.5065 13.6883 80.5185 14.236 80.5422 14.7792C80.6959 14.8091 80.8522 14.8242 81.0089 14.8244C81.5238 14.8244 81.9049 14.6698 82.1527 14.3612C82.4005 14.0527 82.5252 13.6766 82.5252 13.2329ZM90.4112 15.497H89.2618C89.2618 15.3443 89.1528 14.9122 88.9345 14.2002H87.2752C87.0502 14.9005 86.9375 15.3327 86.9375 15.497H85.857C85.857 15.4069 86.1365 14.6672 86.6955 13.2781C87.2545 11.8889 87.534 11.1237 87.534 10.983H88.8917C88.8917 11.1147 89.1451 11.8686 89.6513 13.2452C90.1574 14.6217 90.4112 15.3721 90.4112 15.497ZM88.7519 13.5379C88.3424 12.3453 88.1374 11.7005 88.1374 11.6033H88.0799C88.0799 11.6934 87.8683 12.3382 87.4447 13.5379H88.7519ZM94.6003 12.1649C94.6003 12.7175 94.3876 13.1254 93.9627 13.3888C93.5378 13.6521 93.0165 13.7841 92.3987 13.7841C92.286 13.7841 92.2061 13.7819 92.158 13.7773C92.158 14.2121 92.171 14.785 92.1975 15.497H91.1881C91.2192 14.8292 91.2349 14.042 91.2349 13.1361C91.2349 12.304 91.2192 11.5862 91.1881 10.983H91.813C91.9016 10.983 92.0714 10.9794 92.3228 10.9727C92.5742 10.9659 92.7919 10.9623 92.9764 10.9623C93.4311 10.9623 93.8156 11.0617 94.1292 11.2605C94.4428 11.4594 94.6003 11.7605 94.6003 12.1649ZM93.6739 12.3556C93.6739 11.8612 93.3338 11.6136 92.6538 11.6136C92.4837 11.6136 92.3041 11.631 92.1152 11.6656C92.1417 12.1026 92.1547 12.5971 92.1547 13.1496C92.2145 13.1545 92.2841 13.1564 92.363 13.1564C93.2369 13.1567 93.6739 12.8898 93.6739 12.3556ZM98.9077 12.1649C98.9077 12.7175 98.6951 13.1254 98.2705 13.3888C97.8456 13.6521 97.324 13.7841 96.7062 13.7841C96.5935 13.7841 96.5136 13.7819 96.4655 13.7773C96.4655 14.2121 96.4785 14.785 96.5049 15.497H95.4956C95.5267 14.8292 95.5424 14.042 95.5424 13.1361C95.5424 12.304 95.5267 11.5862 95.4956 10.983H96.1204C96.2091 10.983 96.3789 10.9794 96.6303 10.9727C96.8817 10.9659 97.0993 10.9623 97.2839 10.9623C97.7385 10.9623 98.123 11.0617 98.4366 11.2605C98.7502 11.4594 98.9077 11.7605 98.9077 12.1649ZM97.9813 12.3556C97.9813 11.8612 97.6413 11.6136 96.9613 11.6136C96.7911 11.6136 96.6116 11.631 96.4227 11.6656C96.4491 12.1026 96.4621 12.5971 96.4621 13.1496C96.522 13.1545 96.5915 13.1564 96.6704 13.1564C97.5443 13.1567 97.9813 12.8898 97.9813 12.3556ZM105.95 13.1567C105.95 13.8661 105.725 14.4545 105.275 14.9215C104.825 15.3885 104.268 15.6219 103.605 15.6219C102.973 15.6219 102.444 15.4076 102.018 14.9786C101.592 14.55 101.378 14.0049 101.378 13.3442C101.378 12.6348 101.603 12.0464 102.054 11.5794C102.504 11.1124 103.061 10.879 103.724 10.879C104.356 10.879 104.885 11.0927 105.311 11.5203C105.737 11.948 105.95 12.4931 105.95 13.1567ZM104.959 13.2571C104.959 12.7739 104.831 12.3821 104.575 12.0816C104.319 11.7811 104.002 11.6311 103.627 11.6311C103.277 11.6311 102.98 11.7824 102.736 12.0852C102.492 12.3879 102.37 12.7704 102.37 13.2329C102.37 13.7135 102.498 14.1046 102.756 14.4064C103.013 14.7082 103.328 14.8589 103.702 14.8589C104.052 14.8589 104.348 14.7069 104.593 14.4029C104.837 14.0992 104.959 13.717 104.959 13.2571ZM110.818 15.497H109.931C109.931 15.4021 109.602 14.9018 108.943 13.9959C108.254 13.0412 107.861 12.3886 107.766 12.0371H107.708C107.768 12.5432 107.798 13.0008 107.798 13.4101C107.798 13.9811 107.815 14.6769 107.848 15.4973H106.965C107 14.7808 107.018 13.994 107.018 13.1364C107.018 12.2928 107 11.5749 106.965 10.9833H108.031C108.031 11.106 108.327 11.5949 108.918 12.4499C109.548 13.3581 109.909 13.9743 110.003 14.298H110.056C109.999 13.7826 109.97 13.3204 109.97 12.9111C109.97 12.285 109.953 11.6421 109.92 10.9833H110.818C110.784 11.5565 110.768 12.2743 110.768 13.1364C110.768 14.0049 110.785 14.7918 110.818 15.497Z" fill="#083E9E"/>
</svg>
