<svg width="1400" height="719" viewBox="0 0 1400 719" fill="none" xmlns="http://www.w3.org/2000/svg">
<rect width="1400" height="719" fill="white"/>
<path d="M885 227.625C885 221.757 889.757 217 895.625 217H908.375C914.243 217 919 221.757 919 227.625V240.375C919 246.243 914.243 251 908.375 251H885V227.625Z" fill="#DCFFEB"/>
<path d="M902 241.969C906.401 241.969 909.969 238.401 909.969 234C909.969 229.599 906.401 226.031 902 226.031C897.599 226.031 894.031 229.599 894.031 234C894.031 238.401 897.599 241.969 902 241.969Z" stroke="#16AF4F" stroke-width="3" stroke-linecap="round" stroke-linejoin="round"/>
<path d="M902 238.781C904.641 238.781 906.781 236.641 906.781 234C906.781 231.359 904.641 229.219 902 229.219C899.359 229.219 897.219 231.359 897.219 234C897.219 236.641 899.359 238.781 902 238.781Z" stroke="#16AF4F" stroke-width="3" stroke-linecap="round" stroke-linejoin="round"/>
<path d="M902 235.594C902.88 235.594 903.594 234.88 903.594 234C903.594 233.12 902.88 232.406 902 232.406C901.12 232.406 900.406 233.12 900.406 234C900.406 234.88 901.12 235.594 902 235.594Z" stroke="#16AF4F" stroke-width="3" stroke-linecap="round" stroke-linejoin="round"/>
</svg>
