<svg width="34" height="34" viewBox="0 0 34 34" fill="none" xmlns="http://www.w3.org/2000/svg">
<path d="M0 10.625C0 4.75698 4.75698 0 10.625 0H23.375C29.243 0 34 4.75698 34 10.625V23.375C34 29.243 29.243 34 23.375 34H0V10.625Z" fill="#F8E4EF"/>
<path d="M24.7919 15.9375H9.20856" stroke="#E7439C" stroke-width="3" stroke-linecap="round" stroke-linejoin="round"/>
<path d="M24.7919 18.5938H9.20856" stroke="#E7439C" stroke-width="3" stroke-linecap="round" stroke-linejoin="round"/>
<path d="M21.7812 11.9531V18.9922C21.7812 19.7319 21.5294 20.4413 21.0811 20.9643C20.6327 21.4874 20.0247 21.7812 19.3906 21.7812C18.7566 21.7812 18.1485 21.4874 17.7002 20.9643C17.2519 20.4413 17 19.7319 17 18.9922V15.0078C17 14.2681 16.7481 13.5587 16.2998 13.0357C15.8515 12.5126 15.2434 12.2188 14.6094 12.2188C13.9753 12.2188 13.3673 12.5126 12.9189 13.0357C12.4706 13.5587 12.2188 14.2681 12.2188 15.0078V21.7812" stroke="#E7439C" stroke-width="3" stroke-linecap="round" stroke-linejoin="round"/>
</svg>
